<?xml version="1.0"?>
<svg width="640" height="480" xmlns="http://www.w3.org/2000/svg" xmlns:svg="http://www.w3.org/2000/svg">
 <!-- Created with SVG-edit - https://github.com/SVG-Edit/svgedit-->
 <g class="layer">
  <title>Layer 1</title>
  <g id="svg_3">
   <text fill="#000000" font-family="serif" font-size="24" id="svg_1" stroke="#000000" stroke-width="0" text-anchor="middle" transform="matrix(7.77394 0 0 11.5614 -233.275 -698.637)" x="71.214916" xml:space="preserve" y="82.357142">L A P G</text>
   <path d="m162.487958,430.176557q161.741231,27.973446 323.104896,0m-288.050583,-55.247972c0,-4.323314 13.917034,-7.828006 31.084589,-7.828006c17.167555,0 31.084589,3.504692 31.084589,7.828006c0,4.323278 -13.917034,7.828006 -31.084589,7.828006c-17.167555,0 -31.084589,-3.504728 -31.084589,-7.828006m191.204779,0c0,-4.323314 13.917034,-7.828006 31.084589,-7.828006c17.167555,0 31.084559,3.504692 31.084559,7.828006c0,4.323278 -13.917004,7.828006 -31.084559,7.828006c-17.167525,0 -31.084589,-3.504728 -31.084589,-7.828006m-362.929853,22.475055l0,0c0,-41.503568 133.603627,-75.148856 298.412052,-75.148856c164.808425,0 298.412052,33.645288 298.412052,75.148856c0,41.503568 -133.603627,75.148856 -298.412052,75.148856c-164.808395,0 -298.412052,-33.645288 -298.412052,-75.148856zm0,0l0,0c0,-41.503568 133.603627,-75.148856 298.412052,-75.148856c164.808425,0 298.412052,33.645288 298.412052,75.148856c0,41.503568 -133.603627,75.148856 -298.412052,75.148856c-164.808395,0 -298.412052,-33.645288 -298.412052,-75.148856z" fill="#7f7f7f" id="svg_2" stroke="#000000" stroke-dasharray="null" stroke-linecap="null" stroke-linejoin="null" stroke-width="0"/>
  </g>
 </g>
</svg>